<?xml version="1.0" encoding="UTF-8"?>
<!DOCTYPE svg PUBLIC "-//W3C//DTD SVG 1.1//EN" "http://www.w3.org/Graphics/SVG/1.1/DTD/svg11.dtd">
<svg version="1.2" width="81.21mm" height="81.21mm" viewBox="0 0 8121 8121" preserveAspectRatio="xMidYMid" fill-rule="evenodd" stroke-width="28.222" stroke-linejoin="round" xmlns="http://www.w3.org/2000/svg" xmlns:ooo="http://xml.openoffice.org/svg/export" xmlns:xlink="http://www.w3.org/1999/xlink" xmlns:presentation="http://sun.com/xmlns/staroffice/presentation" xmlns:smil="http://www.w3.org/2001/SMIL20/" xmlns:anim="urn:oasis:names:tc:opendocument:xmlns:animation:1.0" xmlns:svg="urn:oasis:names:tc:opendocument:xmlns:svg-compatible:1.0" xml:space="preserve">
 <defs class="ClipPathGroup">
  <clipPath id="presentation_clip_path" clipPathUnits="userSpaceOnUse">
   <rect x="0" y="0" width="8121" height="8121"/>
  </clipPath>
  <clipPath id="presentation_clip_path_shrink" clipPathUnits="userSpaceOnUse">
   <rect x="8" y="8" width="8105" height="8105"/>
  </clipPath>
 </defs>
 <defs class="TextShapeIndex">
  <g ooo:slide="id1" ooo:id-list="id3 id4 id5 id6 id7 id8"/>
 </defs>
 <defs class="EmbeddedBulletChars">
  <g id="bullet-char-template-57356" transform="scale(0.00048828125,-0.00048828125)">
   <path d="M 580,1141 L 1163,571 580,0 -4,571 580,1141 Z"/>
  </g>
  <g id="bullet-char-template-57354" transform="scale(0.00048828125,-0.00048828125)">
   <path d="M 8,1128 L 1137,1128 1137,0 8,0 8,1128 Z"/>
  </g>
  <g id="bullet-char-template-10146" transform="scale(0.00048828125,-0.00048828125)">
   <path d="M 174,0 L 602,739 174,1481 1456,739 174,0 Z M 1358,739 L 309,1346 659,739 1358,739 Z"/>
  </g>
  <g id="bullet-char-template-10132" transform="scale(0.00048828125,-0.00048828125)">
   <path d="M 2015,739 L 1276,0 717,0 1260,543 174,543 174,936 1260,936 717,1481 1274,1481 2015,739 Z"/>
  </g>
  <g id="bullet-char-template-10007" transform="scale(0.00048828125,-0.00048828125)">
   <path d="M 0,-2 C -7,14 -16,27 -25,37 L 356,567 C 262,823 215,952 215,954 215,979 228,992 255,992 264,992 276,990 289,987 310,991 331,999 354,1012 L 381,999 492,748 772,1049 836,1024 860,1049 C 881,1039 901,1025 922,1006 886,937 835,863 770,784 769,783 710,716 594,584 L 774,223 C 774,196 753,168 711,139 L 727,119 C 717,90 699,76 672,76 641,76 570,178 457,381 L 164,-76 C 142,-110 111,-127 72,-127 30,-127 9,-110 8,-76 1,-67 -2,-52 -2,-32 -2,-23 -1,-13 0,-2 Z"/>
  </g>
  <g id="bullet-char-template-10004" transform="scale(0.00048828125,-0.00048828125)">
   <path d="M 285,-33 C 182,-33 111,30 74,156 52,228 41,333 41,471 41,549 55,616 82,672 116,743 169,778 240,778 293,778 328,747 346,684 L 369,508 C 377,444 397,411 428,410 L 1163,1116 C 1174,1127 1196,1133 1229,1133 1271,1133 1292,1118 1292,1087 L 1292,965 C 1292,929 1282,901 1262,881 L 442,47 C 390,-6 338,-33 285,-33 Z"/>
  </g>
  <g id="bullet-char-template-9679" transform="scale(0.00048828125,-0.00048828125)">
   <path d="M 813,0 C 632,0 489,54 383,161 276,268 223,411 223,592 223,773 276,916 383,1023 489,1130 632,1184 813,1184 992,1184 1136,1130 1245,1023 1353,916 1407,772 1407,592 1407,412 1353,268 1245,161 1136,54 992,0 813,0 Z"/>
  </g>
  <g id="bullet-char-template-8226" transform="scale(0.00048828125,-0.00048828125)">
   <path d="M 346,457 C 273,457 209,483 155,535 101,586 74,649 74,723 74,796 101,859 155,911 209,963 273,989 346,989 419,989 480,963 531,910 582,859 608,796 608,723 608,648 583,586 532,535 482,483 420,457 346,457 Z"/>
  </g>
  <g id="bullet-char-template-8211" transform="scale(0.00048828125,-0.00048828125)">
   <path d="M -4,459 L 1135,459 1135,606 -4,606 -4,459 Z"/>
  </g>
  <g id="bullet-char-template-61548" transform="scale(0.00048828125,-0.00048828125)">
   <path d="M 173,740 C 173,903 231,1043 346,1159 462,1274 601,1332 765,1332 928,1332 1067,1274 1183,1159 1299,1043 1357,903 1357,740 1357,577 1299,437 1183,322 1067,206 928,148 765,148 601,148 462,206 346,322 231,437 173,577 173,740 Z"/>
  </g>
 </defs>
 <g>
  <g id="id2" class="Master_Slide">
   <g id="bg-id2" class="Background"/>
   <g id="bo-id2" class="BackgroundObjects"/>
  </g>
 </g>
 <g class="SlideGroup">
  <g>
   <g id="container-id1">
    <g id="id1" class="Slide" clip-path="url(#presentation_clip_path)">
     <g class="Page">
      <g class="com.sun.star.drawing.ClosedBezierShape">
       <g id="id3">
        <rect class="BoundingBox" stroke="none" fill="none" x="13" y="812" width="7344" height="7291"/>
        <path fill="rgb(255,255,255)" stroke="none" d="M 14,813 L 14,2048 C 3384,2051 6125,4757 6151,8101 L 7355,8101 C 7328,4093 4051,839 14,813 Z "/>
       </g>
      </g>
      <g class="com.sun.star.drawing.ClosedBezierShape">
       <g id="id4">
        <rect class="BoundingBox" stroke="none" fill="none" x="2973" y="13" width="5130" height="4931"/>
        <path fill="rgb(255,255,255)" stroke="none" d="M 8101,4942 L 8101,2408 C 7789,1982 7416,1525 7032,1144 6609,723 6130,347 5649,14 L 2974,14 C 5307,855 7180,2662 8101,4942 Z "/>
       </g>
      </g>
      <g class="com.sun.star.drawing.ClosedBezierShape">
       <g id="id5">
        <rect class="BoundingBox" stroke="none" fill="none" x="13" y="2050" width="6140" height="6056"/>
        <path fill="rgb(0,139,56)" stroke="none" d="M 14,2051 L 14,3369 C 2633,3392 4757,5500 4784,8104 L 6151,8104 C 6125,4760 3384,2054 14,2051 Z "/>
       </g>
      </g>
      <g class="com.sun.star.drawing.ClosedBezierShape">
       <g id="id6">
        <rect class="BoundingBox" stroke="none" fill="none" x="13" y="13" width="8090" height="8093"/>
        <path fill="rgb(0,139,56)" stroke="none" d="M 8101,7696 L 8101,4942 C 7180,2662 5307,855 2974,14 L 419,14 C 197,14 14,194 14,419 L 14,816 C 4051,839 7328,4093 7355,8104 L 7699,8104 C 7921,8101 8101,7921 8101,7696 Z "/>
       </g>
      </g>
      <g class="com.sun.star.drawing.ClosedBezierShape">
       <g id="id7">
        <rect class="BoundingBox" stroke="none" fill="none" x="5654" y="13" width="2452" height="2396"/>
        <path fill="rgb(0,139,56)" stroke="none" d="M 7035,1144 C 7418,1525 7791,1982 8104,2408 L 8104,419 C 8104,197 7924,14 7699,14 L 5654,14 C 6130,347 6612,723 7035,1144 Z "/>
       </g>
      </g>
      <g class="com.sun.star.drawing.PolyPolygonShape">
       <g id="id8">
        <rect class="BoundingBox" stroke="none" fill="none" x="306" y="4330" width="2525" height="3485"/>
        <path fill="rgb(0,139,56)" stroke="none" d="M 2830,6826 L 2825,6935 2817,6989 2808,7041 2794,7090 2779,7140 2760,7186 2737,7232 2713,7277 2685,7318 2655,7360 2622,7399 2584,7438 2547,7474 2504,7511 2459,7545 2411,7578 2361,7608 2308,7636 2253,7663 2136,7709 2009,7746 1872,7775 1726,7798 1570,7809 1403,7813 1252,7810 1105,7802 962,7785 823,7763 688,7734 556,7700 430,7657 307,7610 307,6941 447,6991 588,7041 880,7132 953,7154 1027,7171 1102,7186 1175,7198 1249,7208 1321,7215 1394,7219 1468,7221 1543,7219 1609,7215 1671,7205 1728,7196 1780,7182 1803,7173 1824,7164 1846,7154 1865,7143 1882,7130 1899,7119 1928,7091 1943,7079 1954,7065 1967,7049 1977,7034 1987,7019 1996,7003 2003,6987 2009,6970 2015,6952 2018,6934 2025,6897 2026,6858 2025,6828 2019,6797 2013,6769 2003,6741 1996,6729 1987,6715 1980,6701 1971,6690 1951,6663 1927,6641 1901,6619 1872,6598 1842,6576 1808,6555 1774,6534 1738,6514 1657,6474 1273,6304 1204,6273 1132,6242 979,6169 940,6149 903,6127 826,6081 751,6031 679,5975 643,5944 610,5914 578,5880 548,5845 519,5810 492,5773 466,5734 443,5692 421,5650 402,5606 386,5558 373,5509 365,5458 356,5406 353,5351 350,5293 356,5182 373,5079 385,5029 401,4980 418,4933 438,4888 463,4845 489,4803 518,4762 548,4723 582,4686 620,4650 660,4616 702,4584 747,4552 796,4523 844,4496 895,4473 1004,4429 1120,4393 1243,4365 1376,4346 1517,4335 1664,4330 1814,4335 1961,4344 2032,4354 2103,4364 2172,4376 2241,4392 2380,4425 2522,4467 2667,4514 2815,4567 2548,5126 2420,5082 2296,5043 2181,5008 2071,4980 2018,4967 1964,4958 1911,4948 1856,4941 1801,4935 1746,4930 1692,4928 1637,4927 1581,4928 1527,4933 1477,4941 1431,4951 1387,4965 1367,4972 1348,4981 1330,4990 1311,5001 1294,5011 1278,5023 1263,5036 1249,5047 1237,5061 1224,5075 1213,5087 1203,5103 1194,5118 1185,5133 1178,5149 1171,5164 1167,5181 1162,5197 1159,5215 1156,5232 1155,5270 1155,5292 1158,5313 1161,5334 1167,5355 1171,5374 1180,5394 1188,5412 1201,5430 1213,5448 1227,5465 1240,5482 1257,5497 1275,5512 1295,5528 1315,5542 1338,5554 1441,5610 1568,5670 1716,5738 1886,5812 2031,5873 2162,5936 2284,6000 2394,6067 2446,6100 2492,6135 2537,6173 2580,6212 2619,6251 2654,6293 2688,6334 2717,6380 2743,6426 2766,6477 2785,6527 2802,6581 2815,6638 2824,6698 2828,6761 2830,6826 Z "/>
       </g>
      </g>
     </g>
    </g>
   </g>
  </g>
 </g>
</svg>